<svg xmlns="http://www.w3.org/2000/svg" xmlns:xlink="http://www.w3.org/1999/xlink" width="829" height="67" viewBox="0 0 829 67">
  <defs>
    <linearGradient id="linear-gradient" y1="0.5" x2="1" y2="0.5" gradientUnits="objectBoundingBox">
      <stop offset="0" stop-color="#8b13fd"/>
      <stop offset="1" stop-color="#681bd2"/>
    </linearGradient>
  </defs>
  <g id="icon" transform="translate(-17174 -3518)">
    <g id="Group_102" data-name="Group 102" transform="translate(17174 3518)">
      <ellipse id="Ellipse_19" data-name="Ellipse 19" cx="33" cy="33.5" rx="33" ry="33.5" transform="translate(0)" fill="#c32030" opacity="0.09"/>
      <g id="angular" transform="translate(15.576 14.371)">
        <path id="Path_13" data-name="Path 13" d="M18.025,0,36.049,6.392,33.125,29.849l-15.1,8.464-15.1-8.464L0,6.392Z" fill="#dd1e32" fill-rule="evenodd"/>
        <path id="Path_14" data-name="Path 14" d="M112.025,0,94,6.392l2.924,23.458,15.1,8.464Z" transform="translate(-94)" fill="#c32030" fill-rule="evenodd"/>
        <path id="Path_15" data-name="Path 15" d="M57.782,39.732,46.515,14.451,35.251,39.716c1.441,0,2.7.036,3.961-.033.229-.012.516-.416.637-.7.589-1.376,1.159-2.762,1.675-4.167a1,1,0,0,1,1.122-.754q3.834.048,7.67,0a1.04,1.04,0,0,1,1.194.793c.487,1.38,1.1,2.718,1.611,4.09a1,1,0,0,0,1.11.8C55.338,39.7,56.449,39.732,57.782,39.732ZM49.654,30.49h-6.29l3.145-7.559Z" transform="translate(-28.492 -11.68)" fill="#fff" fill-rule="evenodd"/>
      </g>
    </g>
    <g id="Group_98" data-name="Group 98" transform="translate(17681.816 3518)">
      <ellipse id="Ellipse_23" data-name="Ellipse 23" cx="32.5" cy="33.5" rx="32.5" ry="33.5" transform="translate(0.184)" fill="#6e1ada" opacity="0.09"/>
      <g id="bootstrap" transform="translate(9.426 14.999)">
        <g id="Group_5" data-name="Group 5" transform="translate(0 0)">
          <path id="Path_16" data-name="Path 16" d="M0,19.368V17.1a11.668,11.668,0,0,0,1.205-.35,4.5,4.5,0,0,0,2.182-2.023A11.357,11.357,0,0,0,4.6,11.22,25.629,25.629,0,0,0,5.029,5.1,4.926,4.926,0,0,1,6,1.767,4.352,4.352,0,0,1,9.6,0c3.27.007,6.54,0,9.81,0q8.334,0,16.669,0a4.362,4.362,0,0,1,3.364,1.446,4.761,4.761,0,0,1,1.24,3.343c0,1.218-.02,2.44.057,3.654a16.191,16.191,0,0,0,1.189,5.506A5.4,5.4,0,0,0,43.844,16.4a4.139,4.139,0,0,0,1.756.645l.108.018V19.33a11.449,11.449,0,0,0-1.214.356,4.661,4.661,0,0,0-2.363,2.376,12.372,12.372,0,0,0-1.066,3.347,26.4,26.4,0,0,0-.391,5.851,5.021,5.021,0,0,1-.871,3.283,4.327,4.327,0,0,1-3.441,1.883c-.131.006-.263.006-.395.006q-13.167,0-26.334,0a4.39,4.39,0,0,1-3.608-1.726,4.764,4.764,0,0,1-1.007-3.055c0-1.212.013-2.425-.055-3.634A16.465,16.465,0,0,0,3.8,22.528a6.084,6.084,0,0,0-1.17-1.852A4.083,4.083,0,0,0,.1,19.386Z" transform="translate(0 0)" fill-rule="evenodd" fill="url(#linear-gradient)"/>
        </g>
        <path id="Path_17" data-name="Path 17" d="M62.988,38.306c.07.015.14.034.211.045a5.207,5.207,0,0,1,2.676,1.134,4.394,4.394,0,0,1,1.6,3.125,5.409,5.409,0,0,1-.557,2.977,4.887,4.887,0,0,1-2.278,2.162,7.95,7.95,0,0,1-3.433.776c-2.556.025-5.112.013-7.668.013a.745.745,0,0,1-.747-.67,2.338,2.338,0,0,1-.019-.31q0-8.708,0-17.415a2.34,2.34,0,0,1,.019-.31.746.746,0,0,1,.75-.666c2.48,0,4.96-.012,7.44.009a6.481,6.481,0,0,1,3.348.894,4.468,4.468,0,0,1,1.019,6.856,4.036,4.036,0,0,1-2.078,1.227c-.1.023-.192.054-.287.082C62.986,38.257,62.987,38.282,62.988,38.306Zm-7.117,1.419v6.359h.244c1.274,0,2.548.012,3.822-.006a13.78,13.78,0,0,0,1.589-.125,3.618,3.618,0,0,0,1.785-.727,2.7,2.7,0,0,0,1.024-2.009,2.8,2.8,0,0,0-1.6-3,4.96,4.96,0,0,0-2.045-.476c-1.585-.036-3.171-.023-4.756-.029A.318.318,0,0,0,55.871,39.725ZM55.865,37.4h.2c1.192,0,2.384,0,3.575-.007a5.857,5.857,0,0,0,1.814-.3,3.114,3.114,0,0,0,1.223-.721,2.686,2.686,0,0,0,.755-2.244,2.389,2.389,0,0,0-1.315-2.052,4.328,4.328,0,0,0-2.024-.456c-1.344-.012-2.689,0-4.033,0-.061,0-.122.006-.194.01C55.865,33.549,55.865,35.458,55.865,37.4Z" transform="translate(-37.341 -20.634)" fill="#fff" fill-rule="evenodd"/>
      </g>
    </g>
    <g id="Group_99" data-name="Group 99" transform="translate(17934.695 3518)">
      <ellipse id="Ellipse_22" data-name="Ellipse 22" cx="34" cy="33.5" rx="34" ry="33.5" transform="translate(0.305)" fill="#0076c6" opacity="0.09"/>
      <g id="css3" transform="translate(17.358 14.999)">
        <path id="Path_27" data-name="Path 27" d="M216.236,184.5l3.254,33.926,13.708,3.712,13.515-3.712,3.254-33.926Z" transform="translate(-216.236 -184.5)" fill="#2196f3"/>
        <path id="Path_28" data-name="Path 28" d="M303.867,184.5v37.638l13.515-3.712,3.254-33.926Z" transform="translate(-286.953 -184.5)" fill="#0076c6"/>
        <path id="Path_29" data-name="Path 29" d="M264.626,211.5l-.44,4.948-1.329,14.832-9.92,2.743-.008,0-9.914-2.746-.692-7.756h4.857l.361,4.023L252.931,229l0,0,5.4-1.455.736-6.7-16.979.047-.481-4.584,17.868-.211.361-4.907-18.707.052-.315-4.565h24.243Z" transform="translate(-236.071 -202.392)" fill="#fafafa"/>
        <path id="Path_30" data-name="Path 30" d="M303.615,211.244l6.852-.019-.361,4.907-6.491.076V220.9l6.084-.017-.736,6.7-5.348,1.441v5.024l9.872-2.73,1.329-14.832.44-4.947.432-4.828H303.615Z" transform="translate(-286.75 -202.425)" fill="#deecf1"/>
      </g>
    </g>
    <g id="Group_100" data-name="Group 100" transform="translate(17808.256 3518)">
      <circle id="Ellipse_21" data-name="Ellipse 21" cx="33.5" cy="33.5" r="33.5" transform="translate(-0.256)" fill="#fa502e" opacity="0.09"/>
      <g id="html5" transform="translate(16.729 14.999)">
        <path id="Path_38" data-name="Path 38" d="M0,0,3.15,32.841l13.27,3.594L29.5,32.841,32.653,0Z" transform="translate(0)" fill="#fd982c"/>
        <path id="Path_39" data-name="Path 39" d="M230.746,0V36.435l13.083-3.594L246.979,0Z" transform="translate(-214.326)" fill="#fa502e"/>
        <path id="Path_40" data-name="Path 40" d="M103.045,87.793H89.107l.233,2.55h13.638l-1.1,14.246-8.552,2.487-9.179-2.855V98.444h5.7v1.721l3.478,1.075,3.3-1.075.24-4.266H84.234l-1.425-13.59h20.236Z" transform="translate(-76.916 -76.452)" fill="#fff"/>
        <g id="Group_17" data-name="Group 17" transform="translate(16.42 5.857)">
          <path id="Path_41" data-name="Path 41" d="M230.746,82.309h9.708v5.484h-9.708Z" transform="translate(-230.746 -82.309)" fill="#deecf1"/>
          <path id="Path_42" data-name="Path 42" d="M234.271,200.759l-.24,4.266-3.285,1.072v5.837l8.54-2.484,1.1-14.246h-9.642v5.556Z" transform="translate(-230.746 -187.169)" fill="#deecf1"/>
        </g>
      </g>
    </g>
    <g id="Group_103" data-name="Group 103" transform="translate(17300.439 3518)">
      <ellipse id="Ellipse_18" data-name="Ellipse 18" cx="33" cy="33.5" rx="33" ry="33.5" transform="translate(-0.439)" fill="#4cc8ed" opacity="0.09"/>
      <g id="react" transform="translate(13.258 15.31)">
        <path id="Path_75" data-name="Path 75" d="M33.836,30.859a17.867,17.867,0,0,0-.567-4.67c-.078-.321,0-.416.3-.508a17.135,17.135,0,0,0,6.386-3.3,6.637,6.637,0,0,0,1.626-2.039,3.6,3.6,0,0,0-.074-3.513,7.513,7.513,0,0,0-2.4-2.509,18.99,18.99,0,0,0-5.571-2.544c-.3-.089-.381-.19-.3-.5a18.868,18.868,0,0,0,.6-5.892,7.633,7.633,0,0,0-.939-3.465A3.735,3.735,0,0,0,29.087.058,12.176,12.176,0,0,0,23.48,2.534a18.121,18.121,0,0,0-2.188,1.815c-.23.225-.367.249-.624.007A18.337,18.337,0,0,0,15.3.654,6.411,6.411,0,0,0,11.683.069,3.488,3.488,0,0,0,9.219,1.788a7.933,7.933,0,0,0-1.05,3.788A19.519,19.519,0,0,0,8.725,11.3c.081.339-.016.415-.307.5a18.443,18.443,0,0,0-5.983,2.876A8.281,8.281,0,0,0,1.1,15.945a3.913,3.913,0,0,0,.05,5.5A12.693,12.693,0,0,0,5.6,24.55a21.008,21.008,0,0,0,2.729,1.034c.28.085.392.148.308.5a19.138,19.138,0,0,0-.555,5.42,9.883,9.883,0,0,0,.543,2.91,4.036,4.036,0,0,0,5.214,2.79,13.927,13.927,0,0,0,5.375-2.9c.5-.4.981-.83,1.445-1.272.2-.191.3-.2.509,0a17.95,17.95,0,0,0,5.394,3.663,6.749,6.749,0,0,0,3.789.586,3.562,3.562,0,0,0,2.519-1.783,7.547,7.547,0,0,0,.962-3.323C33.868,31.737,33.836,31.3,33.836,30.859ZM20.392,11.939c1.323-.047,2.664.026,4.005.085a.677.677,0,0,1,.614.317A54.9,54.9,0,0,1,28.5,18.386a.617.617,0,0,1,0,.612,53.871,53.871,0,0,1-3.521,6.075.552.552,0,0,1-.49.274,64.463,64.463,0,0,1-7,0,.6.6,0,0,1-.526-.306,61.59,61.59,0,0,1-3.5-6.089.549.549,0,0,1,0-.561,62.3,62.3,0,0,1,3.5-6.035.623.623,0,0,1,.564-.326C18.478,12.021,19.422,11.891,20.392,11.939Zm12.422,1.488c.028.009.068.025.11.037a17.819,17.819,0,0,1,5.036,2.247,6.265,6.265,0,0,1,1.895,1.851,1.922,1.922,0,0,1,.042,2.105,5.289,5.289,0,0,1-1.146,1.368,16.016,16.016,0,0,1-5.783,2.959c-.229.073-.3-.015-.365-.222a42.772,42.772,0,0,0-1.844-4.8.546.546,0,0,1-.04-.5A41.9,41.9,0,0,0,32.6,13.609C32.639,13.5,32.663,13.412,32.814,13.428Zm-.725,17.455a9.1,9.1,0,0,1-.369,2.8,2.294,2.294,0,0,1-3.113,1.764,14.317,14.317,0,0,1-6.28-3.789c-.167-.153-.076-.226.026-.338a42.523,42.523,0,0,0,3.267-4.046.582.582,0,0,1,.474-.257A36.175,36.175,0,0,0,31.1,26.3c.236-.051.354-.016.417.258A21.018,21.018,0,0,1,32.089,30.883Zm-22.235-.1a22.5,22.5,0,0,1,.5-4.253c.071-.349.24-.345.517-.283A37.378,37.378,0,0,0,15.837,27a.519.519,0,0,1,.442.22,38.652,38.652,0,0,0,3.215,4.091c.141.156.138.245-.021.38-.49.415-.952.863-1.455,1.262a12.041,12.041,0,0,1-4.606,2.5,2.268,2.268,0,0,1-3.094-1.662A9.58,9.58,0,0,1,9.855,30.786ZM29.747,1.837a1.81,1.81,0,0,1,1.717,1.208A6.14,6.14,0,0,1,32,5.058a17.272,17.272,0,0,1-.5,5.8c-.063.277-.13.355-.418.289a41.782,41.782,0,0,0-5.042-.785.438.438,0,0,1-.355-.2,40.942,40.942,0,0,0-3.266-4.046c-.133-.144-.162-.229,0-.381a18.5,18.5,0,0,1,4.4-3.132A6.722,6.722,0,0,1,29.747,1.837ZM9.919,6.447c.022-.326.034-.808.092-1.284A5.645,5.645,0,0,1,10.8,2.651a1.761,1.761,0,0,1,1.275-.825,3.589,3.589,0,0,1,1.552.15,15.5,15.5,0,0,1,5.939,3.8c.173.159.053.241-.044.347a40.519,40.519,0,0,0-3.195,3.989.522.522,0,0,1-.415.255,41.924,41.924,0,0,0-5.04.794c-.264.06-.348.023-.4-.235A22.968,22.968,0,0,1,9.919,6.447ZM1.778,18.613c.014-.071.029-.157.047-.242a3.419,3.419,0,0,1,1.233-1.862,15.959,15.959,0,0,1,6.034-3.034c.28-.086.252.116.292.241a40.83,40.83,0,0,0,1.83,4.664.561.561,0,0,1,.012.53,38.342,38.342,0,0,0-1.916,4.769c-.075.233-.156.284-.4.205a21.4,21.4,0,0,1-2.842-1.1,10.464,10.464,0,0,1-3.541-2.51A2.8,2.8,0,0,1,1.778,18.613ZM14.86,25.1c-1.314-.17-2.533-.363-3.741-.632-.143-.032-.153-.086-.112-.209a34.8,34.8,0,0,1,1.358-3.5C13.153,22.253,13.953,23.649,14.86,25.1Zm12.257,0c.9-1.421,1.7-2.807,2.474-4.274a36.793,36.793,0,0,1,1.3,3.5c.051.162,0,.2-.143.227-.386.067-.767.158-1.154.219A21.25,21.25,0,0,1,27.117,25.1Zm-3.664,2.092c-.694.911-1.354,1.722-2.053,2.5-.476.531-.48.541-.944,0a30.325,30.325,0,0,1-1.985-2.51A41.985,41.985,0,0,0,23.454,27.187ZM23.465,10.2a40.294,40.294,0,0,0-4.962-.012C19.27,9.174,20,8.27,20.787,7.412c.1-.106.169-.236.334-.052C21.916,8.249,22.689,9.154,23.465,10.2Zm-8.621,2.11c-.817,1.31-1.576,2.6-2.283,3.919-.047.088-.1.173-.146.261-.039-.024-.076-.033-.086-.055-.472-1.064-.862-2.157-1.231-3.26-.079-.237.069-.244.209-.273C12.46,12.666,13.616,12.446,14.844,12.31Zm14.749,4.248c-.706-1.336-1.421-2.6-2.192-3.834-.059-.094-.187-.191-.11-.307s.215-.061.325-.048c1.041.121,2.068.325,3.1.526.245.048.172.2.13.328C30.476,14.325,30.091,15.42,29.593,16.559Z" transform="translate(0 -0.001)" fill="#4cc8ed" fill-rule="evenodd"/>
        <path id="Path_76" data-name="Path 76" d="M197,173.846a3.743,3.743,0,1,0,3.735-3.751A3.734,3.734,0,0,0,197,173.846Z" transform="translate(-179.747 -155.19)" fill="#4cc8ed" fill-rule="evenodd"/>
      </g>
    </g>
    <g id="Group_101" data-name="Group 101" transform="translate(17426.879 3518)">
      <ellipse id="Ellipse_20" data-name="Ellipse 20" cx="34" cy="33.5" rx="34" ry="33.5" transform="translate(0.12)" fill="#9dff1d" opacity="0.09"/>
      <g id="nodejs" transform="translate(16.004 13.999)">
        <path id="Path_70" data-name="Path 70" d="M34.835,19.623c0,2.651-.014,5.3.006,7.954a3.347,3.347,0,0,1-1.83,3.172Q26,34.741,19.026,38.78a2.956,2.956,0,0,1-3.16.028c-1.573-.914-3.137-1.842-4.7-2.769-.185-.109-.479-.189-.452-.432s.345-.233.536-.321a7.463,7.463,0,0,0,1.27-.549,1.277,1.277,0,0,1,1.643.057c.933.6,1.911,1.135,2.86,1.715a.677.677,0,0,0,.781.013q7.012-4.043,14.034-8.067a.794.794,0,0,0,.443-.78q-.013-8.046,0-16.091a.928.928,0,0,0-.595-.879Q25.541,7.168,19.4,3.621c-.508-.293-1.018-.58-1.518-.886a.8.8,0,0,0-.9-.014Q10,6.764,3.014,10.789a.843.843,0,0,0-.469.829q.013,7.984,0,15.969a.846.846,0,0,0,.466.833c1.193.682,2.367,1.4,3.563,2.076a2.941,2.941,0,0,0,2.087.451,1.821,1.821,0,0,0,1.531-1.905c.012-1.558,0-3.117,0-4.675q0-5.617,0-11.233c0-.748.082-.826.84-.83.385,0,.769.01,1.154,0,.492-.016.674.206.671.7-.016,2.348-.007,4.7-.007,7.043q0,4.584,0,9.168a5.614,5.614,0,0,1-.184,1.439,3.722,3.722,0,0,1-3.5,2.93,6.675,6.675,0,0,1-4.056-.956C3.97,31.98,2.843,31.307,1.7,30.666A3.14,3.14,0,0,1,0,27.727Q0,19.621,0,11.515A3.212,3.212,0,0,1,1.73,8.532q6.942-3.983,13.864-8A3.377,3.377,0,0,1,19.216.52Q26.17,4.541,33.133,8.549a3.209,3.209,0,0,1,1.7,3Q34.829,15.585,34.835,19.623Z" transform="translate(0.001 0)" fill="#9dff1d" fill-rule="evenodd"/>
        <path id="Path_71" data-name="Path 71" d="M86.849,66.4a11.519,11.519,0,0,1,4.141.681,4.72,4.72,0,0,1,2.993,4.206c.038.383-.123.577-.494.606-.161.013-.326-.013-.485.008-1.007.131-1.756-.009-2.019-1.239A2.139,2.139,0,0,0,89.2,69.186a9.689,9.689,0,0,0-4.506-.005,2.266,2.266,0,0,0-1.067.549,1.4,1.4,0,0,0,.506,2.448,18.542,18.542,0,0,0,3.146.616,26.017,26.017,0,0,1,4.512.88,3.516,3.516,0,0,1,2.754,3.107,4.246,4.246,0,0,1-2,4.371,10.033,10.033,0,0,1-5.671,1.189,10.758,10.758,0,0,1-4.14-.787,4.569,4.569,0,0,1-2.941-4.161c-.033-.51.113-.773.662-.749.465.02.931.017,1.4,0a.555.555,0,0,1,.662.537,2.691,2.691,0,0,0,2.505,2.471,12.923,12.923,0,0,0,4.824-.041,2.906,2.906,0,0,0,1.109-.471,1.863,1.863,0,0,0,.777-1.744c-.045-.69-.538-1-1.116-1.21a15.213,15.213,0,0,0-3.742-.7A16.634,16.634,0,0,1,83,74.76a3.537,3.537,0,0,1-2.666-2.979,4.077,4.077,0,0,1,1.95-4.31A8.812,8.812,0,0,1,86.849,66.4Z" transform="translate(-65.54 -54.549)" fill="#9dff1d" fill-rule="evenodd"/>
      </g>
    </g>
    <g id="Group_97" data-name="Group 97" transform="translate(17555.375 3518)">
      <circle id="Ellipse_24" data-name="Ellipse 24" cx="33.5" cy="33.5" r="33.5" transform="translate(-0.375)" fill="#4e9345" opacity="0.09"/>
      <g id="mongodb-logo" transform="translate(15.747 14.999)">
        <path id="Path_65" data-name="Path 65" d="M17.3,0A39.288,39.288,0,0,1,29.6,1.746c.61.206,1.184.518,1.8.7,1.89.576,2.355,2.1,2.65,3.763a31.4,31.4,0,0,1-.089,11.34c-1.632,10.091-7.4,15.508-16.155,20.038a1.238,1.238,0,0,1-.989.06c-6.54-3.367-11.727-8.08-14.747-14.84A26.24,26.24,0,0,1,.1,14.118,29.423,29.423,0,0,1,.748,5a3.213,3.213,0,0,1,1.9-2.324A28.173,28.173,0,0,1,12.659.229C14.2.1,15.755.073,17.3,0Z" transform="translate(0)" fill="#81c564" fill-rule="evenodd"/>
        <path id="Path_66" data-name="Path 66" d="M36.1,22.113a32.519,32.519,0,0,1,10.294,1.48c.51.175.992.439,1.506.6,1.582.488,1.972,1.779,2.219,3.189a26.949,26.949,0,0,1-.074,9.612C48.555,45.063,43.386,50.2,36.518,53.976a1.026,1.026,0,0,1-.828.051c-5.475-2.853-9.818-6.848-12.346-12.578A22.47,22.47,0,0,1,21.7,34.079a25.244,25.244,0,0,1,.54-7.728,2.717,2.717,0,0,1,1.588-1.97,23.355,23.355,0,0,1,8.384-2.074C33.5,22.2,34.8,22.175,36.1,22.113Z" transform="translate(-18.803 -19.238)" fill="#412f1f" fill-rule="evenodd"/>
        <g id="Group_26" data-name="Group 26" transform="translate(11.02 5.124)">
          <path id="Path_67" data-name="Path 67" d="M97.245,52.736c0,6.587-5.2,10.618-5.2,10.618-.563.563-1.43.693-1.69.087s-5.59-3.9-5.59-10.878A16.139,16.139,0,0,1,90.192,40.71a2.022,2.022,0,0,0,.766-1.3,5.979,5.979,0,0,0,.534,1.251C92,41.49,97.245,45.976,97.245,52.736Z" transform="translate(-84.764 -39.41)" fill="#61ac52"/>
          <path id="Path_68" data-name="Path 68" d="M129.583,199.036a18.573,18.573,0,0,1-.569,3.421,14.745,14.745,0,0,1,.42,3.145l.677.163s-.2-3.3.431-3.537C130.542,202.227,129.583,201.8,129.583,199.036Z" transform="translate(-123.261 -178.283)" fill="#bcb99e"/>
          <g id="Group_25" data-name="Group 25" transform="translate(6.241 0.151)">
            <path id="Path_69" data-name="Path 69" d="M133.252,41.67a5.68,5.68,0,0,1-.488-1.1V64.847a1.563,1.563,0,0,0,1.04-.484s5.2-4.03,5.2-10.618C139,46.984,133.755,42.5,133.252,41.67Z" transform="translate(-132.764 -40.568)" fill="#4e9345"/>
          </g>
        </g>
      </g>
    </g>
  </g>
</svg>
